<?xml version="1.0" encoding="UTF-8" standalone="no"?>
<svg width="18px" height="18px" viewBox="0 0 18 18" version="1.1" xmlns="http://www.w3.org/2000/svg" xmlns:xlink="http://www.w3.org/1999/xlink">
    <!-- Generator: Sketch 3.8.3 (29802) - http://www.bohemiancoding.com/sketch -->
    <title>Group</title>
    <desc>Created with Sketch.</desc>
    <defs></defs>
    <g id="Page-1" stroke="none" stroke-width="1" fill="none" fill-rule="evenodd">
        <g id="Group">
            <g id="Gear_7" fill="#FFFFFF">
                <g id="layer1" transform="translate(0.113781, 0.033332)">
                    <g id="g27" transform="translate(0.124998, 0.048704)">
                        <path d="M17.5195752,7.63821239 L16.0152212,7.13532743 C15.8313982,6.35861947 15.5261947,5.62906195 15.1185664,4.96895575 L15.8261416,3.55061947 C15.3404602,2.91010619 14.7687611,2.33856637 14.1284071,1.85304425 L12.7099115,2.56061947 C12.0499646,2.15283186 11.3204071,1.84730973 10.5438584,1.66364602 L10.0409735,0.159451327 C9.64847788,0.105769912 9.2480177,0.0772566372 8.84070796,0.0772566372 C8.43339823,0.0772566372 8.03309735,0.105769912 7.64044248,0.159451327 L7.13755752,1.66364602 C6.36100885,1.84730973 5.63145133,2.15283186 4.97134513,2.56061947 L3.55300885,1.85304425 C2.91249558,2.33856637 2.34095575,2.91010619 1.85559292,3.55061947 L2.56316814,4.96895575 C2.15538053,5.62906195 1.84985841,6.35861947 1.66635398,7.13532743 L0.162,7.63821239 C0.108318584,8.03054867 0.0798053097,8.43116814 0.0798053097,8.83831858 C0.0798053097,9.24546903 0.108159292,9.6460885 0.162,10.0384248 L1.66635398,10.5413097 C1.8500177,11.3180177 2.15538053,12.0475752 2.56300885,12.7076814 L1.85575221,14.1260177 C2.34111504,14.766531 2.91265487,15.3380708 3.55316814,15.8235929 L4.97150442,15.1160177 C5.63161062,15.5238053 6.36116814,15.8293274 7.13771681,16.0129912 L7.64060177,17.5170265 C8.03309735,17.5708673 8.43355752,17.5993805 8.84086726,17.5993805 C9.24817699,17.5993805 9.64847788,17.5708673 10.0411327,17.5170265 L10.5440177,16.0129912 C11.3205664,15.8293274 12.0501239,15.5238053 12.7100708,15.116177 L14.1285664,15.8235929 C14.7689204,15.3380708 15.3406195,14.766531 15.8259823,14.1260177 L15.1187257,12.7076814 C15.526354,12.0475752 15.8315575,11.3180177 16.0153805,10.5413097 L17.5197345,10.0384248 C17.5734159,9.6460885 17.6019292,9.24546903 17.6019292,8.83831858 C17.6019292,8.43116814 17.5734159,8.03054867 17.5195752,7.63821239 L17.5195752,7.63821239 Z M8.84070796,14.8261062 C5.53380531,14.8261062 2.85292035,12.1453805 2.85292035,8.83831858 C2.85292035,5.53125664 5.53380531,2.85053097 8.84070796,2.85053097 C12.1476106,2.85053097 14.8284956,5.53125664 14.8284956,8.83831858 C14.8284956,12.1453805 12.1476106,14.8261062 8.84070796,14.8261062 L8.84070796,14.8261062 Z" id="path29"></path>
                    </g>
                </g>
            </g>
            <g id="1467918132_102" transform="translate(5.097345, 3.663717)">
                <path d="M1.39794078,2.60514684 L1.39794078,3.99669843 L0.801558397,3.99669843 C0.362214334,3.99669843 0.00634542449,4.35254546 0.00634542449,4.79188953 L0.00634542449,8.76786687 C0.00634542449,9.20718905 0.362214334,9.5630142 0.801558397,9.5630142 L7.16304337,9.5630142 C7.60236555,9.5630142 7.95830011,9.20718905 7.95830011,8.76786687 L7.95830011,4.79188953 C7.95830011,4.35254546 7.60236555,3.99669843 7.16304337,3.99669843 L6.56670476,3.99669843 L6.56670476,2.60514684 C6.56670476,1.17782019 5.40960566,0.0207867354 3.98232277,0.0207867354 C2.55503987,0.0207867354 1.39794078,1.17779831 1.39794078,2.60514684 L1.39794078,2.60514684 Z M2.39194058,3.99669843 L2.39194058,2.60514684 C2.39194058,1.7264806 3.10361276,1.01474278 3.98230088,1.01474278 C4.86098901,1.01474278 5.57270495,1.7264806 5.57270495,2.60514684 L5.57270495,3.99669843 L2.39194058,3.99669843 L2.39194058,3.99669843 Z" id="Shape" fill="#FFFFFF"></path>
                <path d="M3.18710979,6.18348488 C3.18710979,5.7441627 3.54295682,5.38831567 3.98230088,5.38831567 C4.42164495,5.38831567 4.7774701,5.7441627 4.7774701,6.18348488 C4.7774701,6.46382136 4.63231304,6.71035204 4.41370223,6.85148303 C4.41370223,6.85148303 4.49137898,7.32073811 4.57872703,7.8732933 C4.57872703,8.03823057 4.44553875,8.17141885 4.28051396,8.17141885 L3.68408781,8.17141885 C3.5190849,8.17141885 3.38591851,8.03823057 3.38591851,7.8732933 L3.5509433,6.85148303 C3.33231061,6.71035204 3.18710979,6.46379947 3.18710979,6.18348488 L3.18710979,6.18348488 Z" id="Path" fill="#000000"></path>
            </g>
        </g>
    </g>
</svg>